<svg width="16" height="16" viewBox="0 0 522 527" fill="none" xmlns="http://www.w3.org/2000/svg">
<g clip-path="url(#clip0_114_202)">
<path d="M260.534 47.6815C330.146 47.6815 338.389 47.99 365.765 49.2241C391.208 50.3553 404.947 54.6745 414.107 58.2738C426.217 63.0043 434.97 68.7632 444.027 77.9158C453.187 87.1712 458.784 95.9123 463.466 108.15C467.028 117.405 471.302 131.391 472.422 156.998C473.643 184.764 473.948 193.094 473.948 263.332C473.948 333.673 473.643 342.003 472.422 369.666C471.302 395.375 467.028 409.258 463.466 418.514C458.784 430.751 453.085 439.595 444.027 448.748C434.868 458.003 426.217 463.659 414.107 468.39C404.947 471.989 391.106 476.308 365.765 477.44C338.287 478.674 330.044 478.982 260.534 478.982C190.923 478.982 182.679 478.674 155.303 477.44C129.86 476.308 116.121 471.989 106.961 468.39C94.8507 463.659 86.0984 457.9 77.0407 448.748C67.8813 439.493 62.2839 430.751 57.6025 418.514C54.0405 409.258 49.7661 395.272 48.6466 369.666C47.4254 341.9 47.12 333.57 47.12 263.332C47.12 192.991 47.4254 184.661 48.6466 156.998C49.7661 131.288 54.0405 117.405 57.6025 108.15C62.2839 95.9123 67.9831 87.0683 77.0407 77.9158C86.2001 68.6604 94.8507 63.0043 106.961 58.2738C116.121 54.6745 129.962 50.3553 155.303 49.2241C182.679 47.99 190.923 47.6815 260.534 47.6815ZM260.534 0.273438C189.803 0.273438 180.949 0.58195 153.166 1.816C125.484 3.05005 106.453 7.5749 89.9657 14.0537C72.7664 20.8409 58.2131 29.7878 43.7616 44.4936C29.2083 59.0965 20.3542 73.8023 13.6373 91.079C7.22575 107.841 2.74782 126.969 1.52657 154.941C0.305313 183.119 0 192.065 0 263.538C0 335.01 0.305313 343.956 1.52657 372.031C2.74782 400.003 7.22575 419.234 13.6373 435.893C20.3542 453.273 29.2083 467.979 43.7616 482.581C58.2131 497.184 72.7664 506.234 89.8639 512.919C106.453 519.397 125.382 523.922 153.064 525.156C180.847 526.39 189.701 526.699 260.432 526.699C331.163 526.699 340.017 526.39 367.801 525.156C395.483 523.922 414.514 519.397 431.001 512.919C448.098 506.234 462.652 497.184 477.103 482.581C491.555 467.979 500.51 453.273 507.126 435.996C513.537 419.234 518.015 400.106 519.236 372.134C520.458 344.059 520.763 335.112 520.763 263.64C520.763 192.168 520.458 183.221 519.236 155.147C518.015 127.175 513.537 107.944 507.126 91.2847C500.714 73.8023 491.86 59.0965 477.307 44.4936C462.855 29.8906 448.302 20.8409 431.204 14.1565C414.616 7.67774 395.686 3.15289 368.004 1.91884C340.119 0.58195 331.265 0.273438 260.534 0.273438Z" fill="white"/>
<path d="M260.532 128.305C186.646 128.305 126.703 188.876 126.703 263.536C126.703 338.196 186.646 398.767 260.532 398.767C334.418 398.767 394.361 338.196 394.361 263.536C394.361 188.876 334.418 128.305 260.532 128.305ZM260.532 351.256C212.598 351.256 173.721 311.973 173.721 263.536C173.721 215.1 212.598 175.816 260.532 175.816C308.466 175.816 347.343 215.1 347.343 263.536C347.343 311.973 308.466 351.256 260.532 351.256Z" fill="white"/>
<path d="M430.901 122.954C430.901 140.436 416.857 154.525 399.658 154.525C382.357 154.525 368.414 140.334 368.414 122.954C368.414 105.472 382.458 91.3828 399.658 91.3828C416.857 91.3828 430.901 105.574 430.901 122.954Z" fill="white"/>
</g>
<defs>
<clipPath id="clip0_114_202">
<rect width="521.068" height="526.528" fill="white" transform="translate(0 0.273438)"/>
</clipPath>
</defs>
</svg>
