<svg width="16" height="16" viewBox="0 0 282 302" fill="none" xmlns="http://www.w3.org/2000/svg">
<path fill-rule="evenodd" clip-rule="evenodd" d="M72.0195 14.2579C66.8408 0.939672 61.3862 0.672073 56.4566 0.440496C52.4257 0.239798 47.812 0.250089 43.2071 0.250089C38.5979 0.250089 31.1056 2.25708 24.7701 10.2593C18.4301 18.2616 0.5625 37.6111 0.5625 76.9636C0.5625 116.321 25.344 154.346 28.8009 159.688C32.2579 165.024 76.6377 248.361 146.92 280.421C205.332 307.068 217.216 301.767 229.896 300.435C242.576 299.102 270.805 281.085 276.567 262.41C282.333 243.734 282.333 227.73 280.602 224.38C278.872 221.05 274.262 219.048 267.348 215.05C260.434 211.051 226.439 191.697 220.099 189.031C213.759 186.36 209.15 185.032 204.54 193.04C199.927 201.037 186.686 219.048 182.651 224.38C178.616 229.727 174.58 230.396 167.666 226.392C160.752 222.383 138.48 213.943 112.061 186.695C91.5066 165.498 77.6254 139.314 73.59 131.307C69.5592 123.31 73.5233 119.357 76.6288 114.988C82.2213 107.12 91.6044 92.9732 93.9091 87.6418C96.2137 82.3001 95.0614 77.6326 93.3351 73.6289C91.6044 69.6303 78.1637 30.0771 72.0195 14.2579Z" fill="white"/>
</svg>
