<svg width="16" height="16" viewBox="0 0 522 513" fill="none" xmlns="http://www.w3.org/2000/svg">
<g clip-path="url(#clip0_114_203)">
<path d="M521.209 256.811C521.209 115.453 404.564 0.859375 260.675 0.859375C116.786 0.859375 0.140625 115.453 0.140625 256.811C0.140625 384.561 95.4137 490.451 219.966 509.652V330.796H153.815V256.811H219.966V200.421C219.966 136.274 258.863 100.84 318.374 100.84C346.87 100.84 376.694 105.839 376.694 105.839V168.827H343.842C311.479 168.827 301.383 188.559 301.383 208.82V256.811H373.641L362.09 330.796H301.383V509.652C425.936 490.451 521.209 384.561 521.209 256.811Z" fill="white"/>
</g>
<defs>
<clipPath id="clip0_114_203">
<rect width="521.068" height="511.902" fill="white" transform="translate(0.140625 0.859375)"/>
</clipPath>
</defs>
</svg>
